# xmcd
#
# Track frame offsets:
#	150
#	13650
#	27975
#	39225
#	53925
#	75825
#	87825
#	101400
#	120225
#	135525
#	150975
#	169875
#	182925
#	196650
#	210750
#	224475
#
# Disc length: 3178 seconds
#
# Revision: 1
# Processed by: cddbd v1.5.1PL2 Copyright (c) Steve Scherf et al.
# Submitted via: audiograbber 1.83.01
#
DISCID=bc0c6810
DTITLE=Sybersound - Party Tyme - Country Legends 2 (SY-1075)
DYEAR=1900
DGENRE=Karaoke
TTITLE0=Johnny Cash - Ring of Fire
TTITLE1=Hank Williams - Cold, Cold Heart
TTITLE2=Patsy Cline - Walkin' After Midnight
TTITLE3=Nat King Cole - Ramblin Rose
TTITLE4=Marty Robbins - El Paso
TTITLE5=Loretta Lynn - Don't Come Home A Drinkin
TTITLE6=Porter Wagoner - Green, Green Grass of Home
TTITLE7=Ray Price - For The Good Times (Lay Your Head)
TTITLE8=Patsy Cline - She's Got You
TTITLE9=Bobby Bare - Detroit City (I Wanna Go Home)
TTITLE10=Johnny Cash - Boy Named Sue
TTITLE11=Brenda Lee - I'm Sorry
TTITLE12=Ray Price - Heartaches By The Number
TTITLE13=Merle Haggard - Okie From Muskogee
TTITLE14=Erness Tubb - Sweet Thang
TTITLE15=Tennessee Ernie Ford - Sixteen Tons
EXTD=
EXTT0=
EXTT1=
EXTT2=
EXTT3=
EXTT4=
EXTT5=
EXTT6=
EXTT7=
EXTT8=
EXTT9=
EXTT10=
EXTT11=
EXTT12=
EXTT13=
EXTT14=
EXTT15=
PLAYORDER=
